<mxfile host="app.diagrams.net" agent="Mozilla/5.0 (Windows NT 10.0; Win64; x64) AppleWebKit/537.36 (KHTML, like Gecko) Chrome/128.0.0.0 Safari/537.36" version="24.7.14">
  <diagram name="Page-1" id="RuVRTsxT1qqrmNqQnkN5">
    <mxGraphModel dx="1628" dy="887" grid="1" gridSize="10" guides="1" tooltips="1" connect="1" arrows="1" fold="1" page="1" pageScale="1" pageWidth="1100" pageHeight="850" math="0" shadow="0">
      <root>
        <mxCell id="0" />
        <mxCell id="1" parent="0" />
        <mxCell id="O_IjlRHFyGmvk4e-hiPf-1" value="Клієнт" style="verticalAlign=top;align=left;spacingTop=8;spacingLeft=2;spacingRight=12;shape=cube;size=10;direction=south;fontStyle=4;html=1;rounded=0;shadow=0;comic=0;labelBackgroundColor=none;strokeWidth=1;fontFamily=Verdana;fontSize=12" parent="1" vertex="1">
          <mxGeometry x="385" y="70" width="330" height="220" as="geometry" />
        </mxCell>
        <mxCell id="O_IjlRHFyGmvk4e-hiPf-2" value="Файлова система" style="verticalAlign=top;align=left;spacingTop=8;spacingLeft=2;spacingRight=12;shape=cube;size=10;direction=south;fontStyle=4;html=1;rounded=0;shadow=0;comic=0;labelBackgroundColor=none;strokeWidth=1;fontFamily=Verdana;fontSize=12" parent="1" vertex="1">
          <mxGeometry x="750" y="70" width="330" height="220" as="geometry" />
        </mxCell>
        <mxCell id="O_IjlRHFyGmvk4e-hiPf-3" value="Бекенд" style="verticalAlign=top;align=left;spacingTop=8;spacingLeft=2;spacingRight=12;shape=cube;size=10;direction=south;fontStyle=4;html=1;rounded=0;shadow=0;comic=0;labelBackgroundColor=none;strokeWidth=1;fontFamily=Verdana;fontSize=12" parent="1" vertex="1">
          <mxGeometry x="590" y="410" width="460" height="160" as="geometry" />
        </mxCell>
        <mxCell id="O_IjlRHFyGmvk4e-hiPf-4" value="Фронтенд" style="shape=component;align=left;spacingLeft=36;rounded=0;shadow=0;comic=0;labelBackgroundColor=none;strokeWidth=1;fontFamily=Verdana;fontSize=12;html=1;whiteSpace=wrap;" parent="1" vertex="1">
          <mxGeometry x="530" y="135" width="120" height="60" as="geometry" />
        </mxCell>
        <mxCell id="O_IjlRHFyGmvk4e-hiPf-5" value="" style="ellipse;whiteSpace=wrap;html=1;rounded=0;shadow=0;comic=0;labelBackgroundColor=none;strokeWidth=1;fontFamily=Verdana;fontSize=12;align=center;" parent="1" vertex="1">
          <mxGeometry x="580" y="230" width="20" height="20" as="geometry" />
        </mxCell>
        <mxCell id="O_IjlRHFyGmvk4e-hiPf-6" value="Диск" style="shape=component;align=left;spacingLeft=36;rounded=0;shadow=0;comic=0;labelBackgroundColor=none;strokeWidth=1;fontFamily=Verdana;fontSize=12;html=1;" parent="1" vertex="1">
          <mxGeometry x="780" y="135" width="120" height="60" as="geometry" />
        </mxCell>
        <mxCell id="O_IjlRHFyGmvk4e-hiPf-7" value="" style="ellipse;whiteSpace=wrap;html=1;rounded=0;shadow=0;comic=0;labelBackgroundColor=none;strokeWidth=1;fontFamily=Verdana;fontSize=12;align=center;" parent="1" vertex="1">
          <mxGeometry x="840" y="230" width="20" height="20" as="geometry" />
        </mxCell>
        <mxCell id="O_IjlRHFyGmvk4e-hiPf-8" value="Система зберігання, обробки та керування даними." style="shape=component;align=left;spacingLeft=36;rounded=0;shadow=0;comic=0;labelBackgroundColor=none;strokeWidth=1;fontFamily=Verdana;fontSize=12;html=1;whiteSpace=wrap;" parent="1" vertex="1">
          <mxGeometry x="850" y="445" width="170" height="90" as="geometry" />
        </mxCell>
        <mxCell id="O_IjlRHFyGmvk4e-hiPf-9" style="edgeStyle=none;rounded=0;html=1;dashed=1;labelBackgroundColor=none;startArrow=open;startFill=0;startSize=8;endArrow=open;endFill=0;endSize=8;fontFamily=Verdana;fontSize=12;" parent="1" source="OaDZxl6K5vvD52KUhO_W-1" target="O_IjlRHFyGmvk4e-hiPf-5" edge="1">
          <mxGeometry relative="1" as="geometry" />
        </mxCell>
        <mxCell id="O_IjlRHFyGmvk4e-hiPf-10" style="edgeStyle=none;rounded=0;html=1;dashed=1;labelBackgroundColor=none;startArrow=open;startFill=0;startSize=8;endArrow=open;endFill=0;endSize=8;fontFamily=Verdana;fontSize=12;" parent="1" source="O_IjlRHFyGmvk4e-hiPf-8" target="O_IjlRHFyGmvk4e-hiPf-7" edge="1">
          <mxGeometry relative="1" as="geometry" />
        </mxCell>
        <mxCell id="O_IjlRHFyGmvk4e-hiPf-11" style="edgeStyle=elbowEdgeStyle;rounded=0;html=1;labelBackgroundColor=none;startArrow=none;startFill=0;startSize=8;endArrow=none;endFill=0;endSize=16;fontFamily=Verdana;fontSize=12;" parent="1" source="O_IjlRHFyGmvk4e-hiPf-7" target="O_IjlRHFyGmvk4e-hiPf-6" edge="1">
          <mxGeometry relative="1" as="geometry" />
        </mxCell>
        <mxCell id="O_IjlRHFyGmvk4e-hiPf-12" style="edgeStyle=elbowEdgeStyle;rounded=0;html=1;labelBackgroundColor=none;startArrow=none;startFill=0;startSize=8;endArrow=none;endFill=0;endSize=16;fontFamily=Verdana;fontSize=12;" parent="1" source="O_IjlRHFyGmvk4e-hiPf-5" target="O_IjlRHFyGmvk4e-hiPf-4" edge="1">
          <mxGeometry relative="1" as="geometry" />
        </mxCell>
        <mxCell id="O_IjlRHFyGmvk4e-hiPf-13" style="edgeStyle=orthogonalEdgeStyle;rounded=0;html=1;labelBackgroundColor=none;startArrow=none;startFill=0;startSize=8;endArrow=none;endFill=0;endSize=16;fontFamily=Verdana;fontSize=12;" parent="1" source="O_IjlRHFyGmvk4e-hiPf-3" target="O_IjlRHFyGmvk4e-hiPf-2" edge="1">
          <mxGeometry relative="1" as="geometry">
            <Array as="points">
              <mxPoint x="915" y="485" />
            </Array>
          </mxGeometry>
        </mxCell>
        <mxCell id="O_IjlRHFyGmvk4e-hiPf-14" style="edgeStyle=orthogonalEdgeStyle;rounded=0;html=1;labelBackgroundColor=none;startArrow=none;startFill=0;startSize=8;endArrow=none;endFill=0;endSize=16;fontFamily=Verdana;fontSize=12;" parent="1" source="O_IjlRHFyGmvk4e-hiPf-3" target="O_IjlRHFyGmvk4e-hiPf-1" edge="1">
          <mxGeometry relative="1" as="geometry">
            <Array as="points">
              <mxPoint x="550" y="490" />
            </Array>
          </mxGeometry>
        </mxCell>
        <mxCell id="OaDZxl6K5vvD52KUhO_W-1" value="API" style="shape=component;align=left;spacingLeft=36;rounded=0;shadow=0;comic=0;labelBackgroundColor=none;strokeWidth=1;fontFamily=Verdana;fontSize=12;html=1;whiteSpace=wrap;" vertex="1" parent="1">
          <mxGeometry x="630" y="445" width="170" height="90" as="geometry" />
        </mxCell>
        <mxCell id="OaDZxl6K5vvD52KUhO_W-2" style="edgeStyle=none;rounded=0;html=1;dashed=1;labelBackgroundColor=none;startArrow=open;startFill=0;startSize=8;endArrow=open;endFill=0;endSize=8;fontFamily=Verdana;fontSize=12;strokeWidth=1;" edge="1" parent="1" source="OaDZxl6K5vvD52KUhO_W-1" target="O_IjlRHFyGmvk4e-hiPf-8">
          <mxGeometry relative="1" as="geometry">
            <mxPoint x="703" y="455" as="sourcePoint" />
            <mxPoint x="604" y="259" as="targetPoint" />
          </mxGeometry>
        </mxCell>
        <mxCell id="OaDZxl6K5vvD52KUhO_W-3" value="Робоча машина користувача" style="verticalAlign=top;align=left;spacingTop=8;spacingLeft=2;spacingRight=12;shape=cube;size=10;direction=south;fontStyle=4;html=1;rounded=0;shadow=0;comic=0;labelBackgroundColor=none;strokeWidth=1;fontFamily=Verdana;fontSize=12" vertex="1" parent="1">
          <mxGeometry x="10" y="70" width="330" height="220" as="geometry" />
        </mxCell>
        <mxCell id="OaDZxl6K5vvD52KUhO_W-4" value="Веб-браузер" style="shape=component;align=left;spacingLeft=36;rounded=0;shadow=0;comic=0;labelBackgroundColor=none;strokeWidth=1;fontFamily=Verdana;fontSize=12;html=1;whiteSpace=wrap;" vertex="1" parent="1">
          <mxGeometry x="180" y="140" width="120" height="60" as="geometry" />
        </mxCell>
        <mxCell id="OaDZxl6K5vvD52KUhO_W-6" style="edgeStyle=none;rounded=0;html=1;dashed=1;labelBackgroundColor=none;startArrow=open;startFill=0;startSize=8;endArrow=open;endFill=0;endSize=8;fontFamily=Verdana;fontSize=12;" edge="1" parent="1" source="O_IjlRHFyGmvk4e-hiPf-5" target="OaDZxl6K5vvD52KUhO_W-7">
          <mxGeometry relative="1" as="geometry">
            <mxPoint x="398" y="356" as="sourcePoint" />
            <mxPoint x="240" y="240" as="targetPoint" />
          </mxGeometry>
        </mxCell>
        <mxCell id="OaDZxl6K5vvD52KUhO_W-7" value="" style="ellipse;whiteSpace=wrap;html=1;rounded=0;shadow=0;comic=0;labelBackgroundColor=none;strokeWidth=1;fontFamily=Verdana;fontSize=12;align=center;" vertex="1" parent="1">
          <mxGeometry x="230" y="230" width="20" height="20" as="geometry" />
        </mxCell>
        <mxCell id="OaDZxl6K5vvD52KUhO_W-8" style="edgeStyle=elbowEdgeStyle;rounded=0;html=1;labelBackgroundColor=none;startArrow=none;startFill=0;startSize=8;endArrow=none;endFill=0;endSize=16;fontFamily=Verdana;fontSize=12;" edge="1" parent="1" source="OaDZxl6K5vvD52KUhO_W-7" target="OaDZxl6K5vvD52KUhO_W-4">
          <mxGeometry relative="1" as="geometry">
            <mxPoint x="240" y="195" as="targetPoint" />
          </mxGeometry>
        </mxCell>
      </root>
    </mxGraphModel>
  </diagram>
</mxfile>
